# File created by Blade
# Date/Time:  Tue Jan 27 20:12:02 2015
# Frame Rate: 120.000 fps
#------------------------------------------------------
:FULLY-SPECIFIED
:DEGREES
2354
root 9.622064 32.001637 -3.469140 -0.537306 -7.867194 -0.723793
Spine 0.357481 9.560193 -1.632959
Head 20.666870 -8.833167 0.230142
LeftShoulder -17.246530 3.319177 26.443733
LeftArm -19.325213 -36.507303 -64.872092
LeftForeArm -6.905119 -0.000000 99.352022
LeftHand 16.896641 -0.000000 4.400781
LeftHandThumb1 -26.253704 0.000000 33.147579
RightShoulder -19.975025 -24.769927 -23.694527
RightArm 10.043934 -39.930845 88.395408
RightForeArm -23.662136 0.000000 103.201880
RightHand 18.678263 -0.000000 1.226985
RightHandThumb1 -24.326973 -0.000000 -32.862282
LeftUpLeg 7.311198 2.594706 -10.195460
LeftLeg -3.555129 -0.000000 0.000000
LeftFoot -17.552774 17.979561 -16.913765
LeftToeBase 24.773412 -0.000000 -0.000000
RightUpLeg 11.636114 -34.000477 -33.746430
RightLeg 73.943455 -0.000000 -0.000000
RightFoot 9.807033 -31.568685 18.723121
RightToeBase 17.735300 -0.000000 -0.000000
2355
root 9.613919 32.002562 -3.481882 -0.602214 -8.011535 -0.708764
Spine 0.460376 9.614228 -1.678659
Head 20.595563 -8.783425 0.289225
LeftShoulder -17.244255 3.299434 26.493989
LeftArm -19.412957 -36.527785 -64.851646
LeftForeArm -6.920535 -0.000000 99.380438
LeftHand 16.868492 -0.000000 4.531959
LeftHandThumb1 -26.253704 0.000000 33.147579
RightShoulder -19.908234 -24.730099 -23.719297
RightArm 10.037315 -39.922483 88.407511
RightForeArm -23.654590 -0.000000 103.197052
RightHand 18.650075 -0.000000 1.277050
RightHandThumb1 -24.326973 -0.000000 -32.862282
LeftUpLeg 7.341144 2.684181 -10.194702
LeftLeg -3.548866 -0.000000 0.000000
LeftFoot -17.570183 18.087874 -16.821830
LeftToeBase 24.881717 -0.000000 -0.000000
RightUpLeg 11.387398 -34.532406 -33.611821
RightLeg 73.815731 -0.000000 -0.000000
RightFoot 9.675529 -31.454551 18.847356
RightToeBase 17.750441 -0.000000 -0.000000
2356
root 9.609967 32.003716 -3.499630 -0.645388 -8.170617 -0.698721
Spine 0.559753 9.686008 -1.694029
Head 20.506574 -8.746623 0.300018
LeftShoulder -17.231385 3.293431 26.500847
LeftArm -19.462277 -36.536852 -64.850028
LeftForeArm -6.831544 -0.000000 99.403765
LeftHand 16.848600 0.000000 4.850399
LeftHandThumb1 -26.253704 0.000000 33.147579
RightShoulder -19.852136 -24.706952 -23.753572
RightArm 10.055365 -39.895053 88.398189
RightForeArm -23.638308 0.000000 103.203112
RightHand 18.671924 -0.000000 1.380157
RightHandThumb1 -24.326973 -0.000000 -32.862282
LeftUpLeg 7.325593 2.763866 -10.201381
LeftLeg -3.507336 -0.000000 0.000000
LeftFoot -17.594366 18.177915 -16.823627
LeftToeBase 24.858788 -0.000000 -0.000000
RightUpLeg 11.058801 -35.028844 -33.420003
RightLeg 73.732817 -0.000000 -0.000000
RightFoot 9.408668 -31.286442 19.131366
RightToeBase 17.772061 -0.000000 -0.000000
2357
root 9.602162 32.005115 -3.513952 -0.697090 -8.332992 -0.691056
Spine 0.657439 9.768907 -1.720917
Head 20.427941 -8.732308 0.325951
LeftShoulder -17.200775 3.318889 26.516680
LeftArm -19.480137 -36.581391 -64.851231
LeftForeArm -6.774523 0.000000 99.406448
LeftHand 16.811195 0.000000 5.120860
LeftHandThumb1 -26.253704 0.000000 33.147579
RightShoulder -19.833424 -24.721726 -23.761046
RightArm 10.116977 -39.897203 88.377199
RightForeArm -23.628178 -0.000000 103.192936
RightHand 18.682789 -0.000000 1.371580
RightHandThumb1 -24.326973 -0.000000 -32.862282
LeftUpLeg 7.334944 2.876902 -10.196523
LeftLeg -3.479138 -0.000000 0.000000
LeftFoot -17.615380 18.185897 -16.948228
LeftToeBase 24.754087 -0.000000 -0.000000
RightUpLeg 10.729834 -35.510654 -33.213982
RightLeg 73.647439 -0.000000 -0.000000
RightFoot 9.237753 -31.101383 19.279954
RightToeBase 17.629873 -0.000000 -0.000000
2358
root 9.591344 32.007664 -3.529040 -0.735433 -8.489279 -0.705589
Spine 0.748022 9.847911 -1.732548
Head 20.339511 -8.716849 0.365933
LeftShoulder -17.171804 3.297567 26.547243
LeftArm -19.534915 -36.623647 -64.798718
LeftForeArm -6.793019 -0.000000 99.359488
LeftHand 16.837157 0.000000 5.165507
LeftHandThumb1 -26.253704 0.000000 33.147579
RightShoulder -19.822224 -24.666552 -23.756342
RightArm 10.091763 -39.903287 88.393800
RightForeArm -23.645875 -0.000000 103.189392
RightHand 18.647346 0.000000 1.255087
RightHandThumb1 -24.326973 -0.000000 -32.862282
LeftUpLeg 7.332218 2.957816 -10.163819
LeftLeg -3.457863 -0.000000 0.000000
LeftFoot -17.635886 18.293530 -16.866512
LeftToeBase 24.835019 -0.000000 -0.000000
RightUpLeg 10.392918 -35.996990 -32.955722
RightLeg 73.557020 -0.000000 -0.000000
RightFoot 9.134563 -30.931267 19.265508
RightToeBase 17.727466 -0.000000 -0.000000
2359
root 9.582444 32.009393 -3.548277 -0.749856 -8.668219 -0.707047
Spine 0.814748 9.888149 -1.744342
Head 20.274641 -8.671404 0.357494
LeftShoulder -17.162787 3.309038 26.557983
LeftArm -19.593932 -36.677961 -64.733600
LeftForeArm -6.739436 0.000000 99.300752
LeftHand 16.824474 -0.000000 5.337905
LeftHandThumb1 -26.253704 0.000000 33.147579
RightShoulder -19.753428 -24.592051 -23.819027
RightArm 10.067002 -39.903351 88.441848
RightForeArm -23.667761 -0.000000 103.174509
RightHand 18.630589 -0.000000 1.267058
RightHandThumb1 -24.326973 -0.000000 -32.862282
LeftUpLeg 7.289269 3.052856 -10.149547
LeftLeg -3.413349 -0.000000 0.000000
LeftFoot -17.663820 18.328966 -16.996505
LeftToeBase 24.700101 -0.000000 -0.000000
RightUpLeg 9.969124 -36.486677 -32.684171
RightLeg 73.509036 -0.000000 -0.000000
RightFoot 9.105556 -30.857292 19.222305
RightToeBase 17.382068 -0.000000 -0.000000
2360
root 9.571663 32.012479 -3.568639 -0.771568 -8.841712 -0.724187
Spine 0.918018 9.942779 -1.754322
Head 20.152884 -8.508410 0.395284
LeftShoulder -17.162193 3.303666 26.587769
LeftArm -19.613120 -36.735169 -64.699251
LeftForeArm -6.756842 0.000000 99.211540
LeftHand 16.875199 -0.000000 5.357544
LeftHandThumb1 -26.253704 0.000000 33.147579
RightShoulder -19.747383 -24.515336 -23.820137
RightArm 10.078092 -39.906823 88.427564
RightForeArm -23.676126 -0.000000 103.164774
RightHand 18.616854 0.000000 1.329328
RightHandThumb1 -24.326973 -0.000000 -32.862282
LeftUpLeg 7.253899 3.090899 -10.117423
LeftLeg -3.379579 -0.000000 0.000000
LeftFoot -17.703531 18.468046 -16.953389
LeftToeBase 24.798352 -0.000000 -0.000000
RightUpLeg 9.547220 -36.965295 -32.352127
RightLeg 73.440324 -0.000000 -0.000000
RightFoot 9.141050 -30.947672 19.061461
RightToeBase 17.170062 -0.000000 -0.000000
2361
root 9.561286 32.015559 -3.586472 -0.796326 -9.021683 -0.741120
Spine 1.003565 9.980003 -1.732763
Head 20.075614 -8.605922 0.358868
LeftShoulder -17.137370 3.316162 26.592530
LeftArm -19.659498 -36.835429 -64.611954
LeftForeArm -6.869484 -0.000000 99.082569
LeftHand 16.762986 -0.000000 5.349231
LeftHandThumb1 -26.253704 0.000000 33.147579
RightShoulder -19.695295 -24.480333 -23.868103
RightArm 10.095469 -39.898999 88.449636
RightForeArm -23.653286 -0.000000 103.152929
RightHand 18.646854 -0.000000 1.361208
RightHandThumb1 -24.326973 -0.000000 -32.862282
LeftUpLeg 7.237147 3.129114 -10.091521
LeftLeg -3.356556 -0.000000 0.000000
LeftFoot -17.639828 18.616764 -16.822378
LeftToeBase 24.476798 -0.000000 -0.000000
RightUpLeg 9.143571 -37.467637 -32.060811
RightLeg 73.380205 -0.000000 -0.000000
RightFoot 9.128452 -31.067466 19.012017
RightToeBase 17.090634 -0.000000 -0.000000
2362
root 9.549746 32.019543 -3.606978 -0.800529 -9.209542 -0.765308
Spine 1.087240 10.024069 -1.721987
Head 19.964754 -8.537131 0.360418
LeftShoulder -17.136795 3.313167 26.619207
LeftArm -19.688888 -36.884790 -64.555614
LeftForeArm -6.857104 -0.000000 98.933809
LeftHand 16.799665 -0.000000 5.521992
LeftHandThumb1 -26.253704 0.000000 33.147579
RightShoulder -19.672941 -24.456454 -23.866028
RightArm 10.152778 -39.911121 88.409061
RightForeArm -23.627303 0.000000 103.159827
RightHand 18.594553 -0.000000 1.353426
RightHandThumb1 -24.326973 -0.000000 -32.862282
LeftUpLeg 7.197578 3.154282 -10.055877
LeftLeg -3.341955 -0.000000 0.000000
LeftFoot -17.670291 18.756882 -16.883399
LeftToeBase 24.339810 -0.000000 -0.000000
RightUpLeg 8.716529 -38.009480 -31.758863
RightLeg 73.321826 -0.000000 -0.000000
RightFoot 9.091097 -31.200402 18.904022
RightToeBase 16.970982 -0.000000 -0.000000
2363
root 9.536960 32.023678 -3.625188 -0.810599 -9.381622 -0.777337
Spine 1.169060 10.048666 -1.733537
Head 19.863652 -8.437877 0.376925
LeftShoulder -17.134075 3.288889 26.660564
LeftArm -19.743298 -36.905226 -64.483364
LeftForeArm -6.784522 -0.000000 98.780364
LeftHand 16.899237 -0.000000 5.803237
LeftHandThumb1 -26.253704 0.000000 33.147579
RightShoulder -19.640058 -24.427593 -23.872750
RightArm 10.157059 -39.901127 88.435488
RightForeArm -23.693357 0.000000 103.146104
RightHand 18.640116 0.000000 1.345385
RightHandThumb1 -24.326973 -0.000000 -32.862282
LeftUpLeg 7.172027 3.215992 -10.021742
LeftLeg -3.343058 -0.000000 0.000000
LeftFoot -17.797211 18.823109 -17.109485
LeftToeBase 24.795188 -0.000000 -0.000000
RightUpLeg 8.324565 -38.562536 -31.501639
RightLeg 73.272771 -0.000000 -0.000000
RightFoot 8.826380 -31.269293 19.162976
RightToeBase 17.335649 -0.000000 -0.000000
2364
root 9.524859 32.027893 -3.642307 -0.845747 -9.545055 -0.794565
Spine 1.293512 10.076517 -1.733069
Head 19.730545 -8.340025 0.420142
LeftShoulder -17.132881 3.384939 26.701847
LeftArm -19.622663 -37.038387 -64.586156
LeftForeArm -6.744160 0.000000 98.597423
LeftHand 17.032991 -0.000000 5.800407
LeftHandThumb1 -26.253704 0.000000 33.147579
RightShoulder -19.614839 -24.399685 -23.866951
RightArm 10.154408 -39.853708 88.462790
RightForeArm -23.686269 0.000000 103.155096
RightHand 18.648327 -0.000000 1.423443
RightHandThumb1 -24.326973 -0.000000 -32.862282
LeftUpLeg 7.182232 3.306713 -9.984853
LeftLeg -3.352860 -0.000000 0.000000
LeftFoot -17.811466 18.913552 -17.128954
LeftToeBase 24.798573 -0.000000 -0.000000
RightUpLeg 8.003717 -39.157450 -31.308712
RightLeg 73.236567 -0.000000 -0.000000
RightFoot 8.570187 -31.245387 19.407024
RightToeBase 17.121575 -0.000000 -0.000000
2365
root 9.513936 32.032148 -3.657770 -0.882749 -9.686084 -0.808763
Spine 1.412466 10.085468 -1.725318
Head 19.622561 -8.266930 0.438198
LeftShoulder -17.116755 3.376579 26.712406
LeftArm -19.639594 -37.081807 -64.527544
LeftForeArm -6.785760 0.000000 98.480181
LeftHand 16.912057 -0.000000 6.093372
LeftHandThumb1 -26.253704 0.000000 33.147579
RightShoulder -19.576299 -24.391906 -23.881591
RightArm 10.148878 -39.823228 88.504986
RightForeArm -23.634418 -0.000000 103.159782
RightHand 18.638008 -0.000000 1.390238
RightHandThumb1 -24.326973 -0.000000 -32.862282
LeftUpLeg 7.202426 3.359851 -9.951210
LeftLeg -3.363572 -0.000000 0.000000
LeftFoot -17.836071 18.963810 -17.210225
LeftToeBase 24.807887 -0.000000 -0.000000
RightUpLeg 7.721439 -39.785241 -31.156009
RightLeg 73.175700 -0.000000 -0.000000
RightFoot 8.543078 -31.164242 19.291755
RightToeBase 17.287281 -0.000000 -0.000000
